solid OpenSCAD_Model
  facet normal -0 0 1
    outer loop
      vertex 10.5 42 63
      vertex 30.5 21.9 63
      vertex 30.5 42 63
    endloop
  endfacet
  facet normal 0 0 1
    outer loop
      vertex 30.5 21.9 63
      vertex 10.5 42 63
      vertex 10.5 21.9 63
    endloop
  endfacet
  facet normal 0 0 -1
    outer loop
      vertex 10.5 21.9 43
      vertex 30.5 42 43
      vertex 30.5 21.9 43
    endloop
  endfacet
  facet normal -0 0 -1
    outer loop
      vertex 30.5 42 43
      vertex 10.5 21.9 43
      vertex 10.5 42 43
    endloop
  endfacet
  facet normal 0 -1 0
    outer loop
      vertex 10.5 21.9 43
      vertex 30.5 21.9 63
      vertex 10.5 21.9 63
    endloop
  endfacet
  facet normal 0 -1 -0
    outer loop
      vertex 30.5 21.9 63
      vertex 10.5 21.9 43
      vertex 30.5 21.9 43
    endloop
  endfacet
  facet normal 1 -0 0
    outer loop
      vertex 30.5 21.9 63
      vertex 30.5 42 43
      vertex 30.5 42 63
    endloop
  endfacet
  facet normal 1 0 0
    outer loop
      vertex 30.5 42 43
      vertex 30.5 21.9 63
      vertex 30.5 21.9 43
    endloop
  endfacet
  facet normal 0 1 -0
    outer loop
      vertex 30.5 42 43
      vertex 10.5 42 63
      vertex 30.5 42 63
    endloop
  endfacet
  facet normal 0 1 0
    outer loop
      vertex 10.5 42 63
      vertex 30.5 42 43
      vertex 10.5 42 43
    endloop
  endfacet
  facet normal -1 0 0
    outer loop
      vertex 10.5 21.9 43
      vertex 10.5 42 63
      vertex 10.5 42 43
    endloop
  endfacet
  facet normal -1 -0 0
    outer loop
      vertex 10.5 42 63
      vertex 10.5 21.9 43
      vertex 10.5 21.9 63
    endloop
  endfacet
endsolid OpenSCAD_Model
